<svg width="24" height="24" viewBox="0 0 24 24" fill="none" xmlns="http://www.w3.org/2000/svg">
<g clip-path="url(#clip0_1_136)">
<path d="M16.824 12.4933C20.892 13.072 24 16.1733 24 19.9147C24 21.9693 18.627 23.636 12 23.636C5.373 23.636 0 21.9693 0 19.916C0 16.1733 3.1065 13.0707 7.176 12.4933C8.46805 13.3594 10.0428 13.8271 11.661 13.8253H12.3375C14.022 13.8253 15.5775 13.328 16.8225 12.492L16.824 12.4933ZM12 0.364014C15.543 0.364014 18.4245 2.89868 18.4245 6.01335C18.4245 9.12935 15.5445 12.436 12 12.436C8.457 12.436 5.5755 9.12935 5.5755 6.01468C5.5755 2.89735 8.457 0.364014 12 0.364014Z" fill="white"/>
</g>
<defs>
<clipPath id="clip0_1_136">
<rect width="24" height="24" fill="white"/>
</clipPath>
</defs>
</svg>
